<svg width="31" height="30" viewBox="0 0 31 30" fill="none" xmlns="http://www.w3.org/2000/svg">
<g clip-path="url(#clip0_4_8)">
<path d="M15.3694 29.9997C15.3694 29.9997 15.3656 29.9997 15.3571 29.9997C14.856 29.9997 -0.992404 29.919 0.457679 20.9424C0.467169 20.8799 0.477608 20.8174 0.488996 20.754C0.510823 20.6349 0.536446 20.5138 0.564916 20.3908C0.61901 20.1583 0.674052 19.9267 0.730044 19.6942C0.766106 19.5462 0.802168 19.3982 0.839179 19.2512C0.873344 19.1147 0.907508 18.9783 0.942621 18.8409C0.975836 18.7112 1.00905 18.5815 1.04322 18.4527C1.04416 18.4479 1.04606 18.444 1.04701 18.4392C1.1106 18.1971 1.17608 17.955 1.24441 17.7138C1.25295 17.6811 1.26149 17.6484 1.27098 17.6158C1.76541 15.8487 2.35095 14.1075 3.0684 12.4221C3.85133 10.5859 4.83734 8.93506 5.9828 7.30827C7.64735 4.94544 9.61465 2.35968 12.1172 0.855885C13.0833 0.274546 14.2316 -0.0905927 15.3637 0.0189489C16.4959 -0.0905927 17.6432 0.274546 18.6093 0.855885C21.1119 2.35968 23.0792 4.94544 24.7437 7.30827C25.8892 8.93506 26.8752 10.5859 27.6572 12.4221C28.5454 14.5044 29.2297 16.6722 29.7905 18.8697C29.8494 19.0975 29.9063 19.3261 29.9623 19.5548C29.9642 19.5596 29.9651 19.5644 29.9661 19.5692C29.9984 19.7019 30.0306 19.8345 30.0619 19.9671C30.0762 20.0276 30.0914 20.0872 30.1047 20.1477C30.1246 20.2284 30.1426 20.3101 30.1616 20.3908C32.3614 29.9161 15.8809 29.9997 15.3694 29.9997Z" fill="url(#paint0_radial_4_8)"/>
<circle cx="19.3638" cy="8.00006" r="2" fill="#D7D9FF"/>
<path d="M15.3692 29.9998C15.3692 29.9998 15.3654 29.9998 15.3568 29.9998C14.8558 29.9998 -0.992648 29.9191 0.457434 20.9424C0.466924 20.88 0.477364 20.8175 0.488752 20.7541C0.510579 20.6349 0.536202 20.5139 0.564672 20.3909C0.618766 20.1583 0.673808 19.9268 0.729799 19.6942C0.765862 19.5462 0.801924 19.3983 0.838935 19.2512C0.873099 19.1148 0.907264 18.9784 0.942377 18.8409C0.975592 18.7112 1.00881 18.5815 1.04297 18.4527C1.04392 18.4479 1.04582 18.4441 1.04677 18.4393C1.11035 18.1971 1.17583 17.955 1.24416 17.7138C1.27927 17.6869 1.31534 17.66 1.35045 17.6331C3.0207 16.3686 4.97091 14.6486 5.48717 13.1842C7.06537 8.71027 10.2018 11.2614 11.4764 12.5644C11.8816 12.9785 12.5136 13.0612 13.0043 12.7566C13.6657 12.3453 14.5853 11.5516 15.4935 10.0363C16.1711 8.90629 17.5785 8.45947 18.7543 9.03313C20.6551 9.96135 23.859 12.3367 29.1174 18.0847C29.3604 18.3509 29.5853 18.6123 29.7903 18.8698C29.8491 19.0975 29.9061 19.3262 29.9621 19.5549C29.964 19.5597 29.9649 19.5645 29.9659 19.5693C29.9981 19.7019 30.0304 19.8345 30.0617 19.9671C30.0759 20.0276 30.0911 20.0872 30.1044 20.1478C30.1243 20.2285 30.1424 20.3101 30.1613 20.3909C32.3611 29.9162 15.8807 29.9998 15.3692 29.9998Z" fill="#8589EB"/>
<path opacity="0.15" d="M15.3692 30C15.3692 30 15.3654 30 15.3568 30C14.8558 30 -0.992648 29.9193 0.457434 20.9426C0.466924 20.8802 0.477364 20.8177 0.488752 20.7543C0.510579 20.6351 0.536202 20.5141 0.564672 20.3911C0.618766 20.1585 0.673808 19.9269 0.729799 19.6944C0.765862 19.5464 0.801924 19.3985 0.838935 19.2514C1.60099 19.0929 2.43516 19.1986 3.06436 20.0182C3.12699 20.0989 3.18963 20.1787 3.25416 20.2565C3.58536 20.6563 3.94788 21.0108 4.35216 21.2837C4.64066 21.4788 4.95003 21.6325 5.28503 21.7315C5.88291 21.9093 6.5624 21.9131 7.34438 21.671C8.3228 21.3692 9.46256 20.6822 10.8083 19.4667C14.8434 15.822 20.5147 18.4722 22.3681 20.9023C23.5297 22.4243 25.9535 22.0976 27.5411 21.6335C27.8249 21.5509 28.1049 21.4576 28.3772 21.3491C28.6372 21.2453 28.8916 21.129 29.1364 20.9945C29.1896 20.9657 29.2427 20.9359 29.2949 20.9051C29.4392 20.8206 29.5796 20.7303 29.7172 20.6322C29.8434 20.5419 29.9706 20.442 30.0427 20.3036C30.0693 20.2546 30.0873 20.2018 30.1044 20.148C30.1243 20.2287 30.1424 20.3103 30.1613 20.3911C32.3611 29.9164 15.8807 30 15.3692 30Z" fill="white"/>
<path opacity="0.15" d="M15.3692 30.0001C15.3692 30.0001 15.3654 30.0001 15.3568 30.0001C14.8558 30.0001 -0.992648 29.9194 0.457434 20.9427C0.466924 20.8803 0.477364 20.8178 0.488752 20.7544C0.510579 20.6352 0.536202 20.5142 0.564672 20.3912C0.618766 20.1586 0.673808 19.9271 0.729799 19.6945C0.765862 19.5466 0.801924 19.3986 0.838935 19.2516C0.873099 19.1151 0.907264 18.9787 0.942377 18.8413C0.975592 18.7115 1.00881 18.5818 1.04297 18.4531C1.04392 18.4483 1.04582 18.4444 1.04677 18.4396C1.11035 18.1975 1.17583 17.9553 1.24416 17.7141C1.2527 17.6815 1.26124 17.6488 1.27073 17.6161C1.29731 17.6219 1.32388 17.6276 1.35045 17.6334C1.73195 17.7228 2.11155 17.8967 2.47787 18.184C3.06436 18.6443 3.61668 19.3947 4.08359 20.5507C4.16236 20.7448 4.23923 20.9514 4.3123 21.1695C4.32559 21.2079 4.33792 21.2454 4.35216 21.2838C4.76877 22.4744 5.4625 23.7226 6.64116 24.2367C6.75694 24.2876 6.87841 24.3308 7.00368 24.3664C8.53443 24.7998 10.274 23.9542 11.4621 23.025C11.8446 22.7261 12.1985 22.3889 12.6 22.1179C15.2809 20.3066 18.6024 23.0413 20.2139 25.039C20.2888 25.1322 20.3629 25.2264 20.4359 25.3206C20.7111 25.677 20.9939 25.9586 21.2824 26.1709C23.8229 28.0533 26.7668 24.6671 28.7027 21.6826C28.8546 21.4501 28.9988 21.2195 29.1364 20.9946C29.3499 20.6477 29.5464 20.3133 29.7248 20.0001C29.8007 19.8665 29.8728 19.7368 29.9421 19.6129C29.9497 19.5984 29.9583 19.584 29.9659 19.5696C29.9981 19.7022 30.0304 19.8348 30.0617 19.9674C30.0759 20.028 30.0911 20.0875 30.1044 20.1481C30.1243 20.2288 30.1424 20.3105 30.1613 20.3912C32.3611 29.9165 15.8807 30.0001 15.3692 30.0001Z" fill="white"/>
<path opacity="0.15" d="M15.3692 30C15.3692 30 15.3654 30 15.3568 30C14.8558 30 -0.992648 29.9192 0.457434 20.9426C1.16065 20.5256 2.20835 20.0749 3.25416 20.2565C3.53317 20.3055 3.81217 20.3987 4.08359 20.5506C4.50874 20.7869 4.91777 21.1646 5.28503 21.7315C5.49381 22.0534 5.68931 22.4368 5.86677 22.8894C6.05847 23.3813 6.31565 23.8464 6.64116 24.2365C7.15837 24.8573 7.8483 25.2878 8.72423 25.3368C10.1202 25.4146 11.3947 24.6718 12.5022 23.9079C15.0209 22.1716 17.1666 25.3175 19.7223 25.9642C20.2651 26.1016 20.7852 26.166 21.2824 26.1708C24.1314 26.2006 26.223 24.2634 27.433 22.7231C27.8581 22.1822 28.1751 21.6902 28.3772 21.3491C28.5528 21.0531 28.6429 20.8715 28.6429 20.8715C28.6429 20.8715 29.0596 20.1633 29.7248 20C29.7466 19.9932 29.7694 19.9884 29.7922 19.9846C29.8785 19.9683 29.9687 19.9625 30.0617 19.9673C30.0759 20.0278 30.0911 20.0874 30.1044 20.148C30.1243 20.2287 30.1424 20.3103 30.1613 20.3911C32.3611 29.9164 15.8807 30 15.3692 30Z" fill="white"/>
<path opacity="0.15" d="M15.3692 30.0001C15.3692 30.0001 15.3654 30.0001 15.3568 30.0001C14.8558 30.0001 -0.992648 29.9194 0.457434 20.9427C0.466924 20.8802 0.477364 20.8178 0.488752 20.7544C0.510579 20.6352 0.536202 20.5141 0.564672 20.3912C0.618766 20.1586 0.673808 19.927 0.729799 19.6945C0.765862 19.5465 0.801924 19.3985 0.838935 19.2515C0.873099 19.1151 0.907264 18.9786 0.942377 18.8412C0.975592 18.7115 1.00881 18.5818 1.04297 18.453C1.04392 18.4482 1.04582 18.4444 1.04677 18.4396C1.51368 18.306 1.99957 18.2099 2.47787 18.184C3.7875 18.1119 5.03734 18.5645 5.67697 20.199C5.99963 21.0244 6.58422 21.451 7.34438 21.6711C7.75719 21.7912 8.22126 21.8498 8.72423 21.8776C10.1202 21.9555 11.2524 20.9379 12.5022 20.4488C18.2988 18.1811 19.8229 21.844 22.2846 22.7934C24.584 23.6803 26.2514 23.4016 27.433 22.7232C27.9435 22.4302 28.363 22.0631 28.7027 21.6826C28.9362 21.4231 29.1317 21.157 29.2949 20.9052C29.5208 20.5545 29.684 20.2307 29.7922 19.9847C29.8653 19.8204 29.9146 19.6916 29.9421 19.6128C29.9507 19.5888 29.9573 19.5696 29.9621 19.5552C29.964 19.56 29.9649 19.5648 29.9659 19.5696C29.9981 19.7022 30.0304 19.8348 30.0617 19.9674C30.0759 20.0279 30.0911 20.0875 30.1044 20.148C30.1243 20.2288 30.1424 20.3104 30.1613 20.3912C32.3611 29.9165 15.8807 30.0001 15.3692 30.0001Z" fill="white"/>
</g>
<defs>
<radialGradient id="paint0_radial_4_8" cx="0" cy="0" r="1" gradientUnits="userSpaceOnUse" gradientTransform="translate(15.3636 14.9998) scale(14.9075 15.0942)">
<stop offset="2.23767e-07" stop-color="#8485E0"/>
<stop offset="1" stop-color="#7680FC"/>
</radialGradient>
<clipPath id="clip0_4_8">
<rect width="30" height="30" fill="white" transform="translate(0.363647)"/>
</clipPath>
</defs>
</svg>
